<?xml version="1.0" encoding="UTF-8"?>
<svg width="80px" height="80px" viewBox="0 0 80 80" version="1.1" xmlns="http://www.w3.org/2000/svg" xmlns:xlink="http://www.w3.org/1999/xlink">
    <!-- Generator: Sketch 40.3 (33839) - http://www.bohemiancoding.com/sketch -->
    <title>WhiteLink</title>
    <desc>Created with Sketch.</desc>
    <defs></defs>
    <g id="Page-1" stroke="none" stroke-width="1" fill="none" fill-rule="evenodd">
        <g id="WhiteLink" fill="#FFFFFF">
            <g id="Link">
                <path d="M29.298,63.471 L25.25,67.491 C21.741,70.969 16.034,70.972 12.527,67.491 C10.841,65.818 9.915,63.596 9.915,61.234 C9.915,58.872 10.842,56.649 12.526,54.976 L27.426,40.193 C30.514,37.131 36.323,32.622 40.557,36.821 C42.5,38.751 45.638,38.738 47.567,36.796 C49.497,34.854 49.485,31.715 47.542,29.787 C40.345,22.645 29.708,23.965 20.444,33.157 L5.543,47.941 C1.968,51.49 0,56.21 0,61.234 C0,66.258 1.968,70.977 5.544,74.526 C9.223,78.176 14.054,80 18.887,80 C23.721,80 28.554,78.176 32.235,74.524 L36.286,70.503 C38.228,68.575 38.239,65.437 36.309,63.494 C34.382,61.553 31.241,61.542 29.298,63.471 L29.298,63.471 Z M74.454,6.044 C66.724,-1.626 55.916,-2.042 48.76,5.058 L43.714,10.067 C41.771,11.996 41.759,15.133 43.689,17.076 C45.619,19.019 48.757,19.03 50.7,17.101 L55.744,12.095 C59.451,8.414 64.305,9.94 67.471,13.081 C69.159,14.754 70.086,16.977 70.086,19.339 C70.086,21.702 69.158,23.925 67.473,25.598 L51.576,41.368 C44.307,48.58 40.897,45.195 39.442,43.751 C37.499,41.822 34.362,41.834 32.432,43.776 C30.502,45.718 30.514,48.857 32.457,50.785 C35.794,54.097 39.603,55.739 43.596,55.739 C48.485,55.739 53.649,53.277 58.559,48.402 L74.456,32.632 C78.03,29.083 80,24.362 80,19.338 C80,14.316 78.03,9.595 74.454,6.044 L74.454,6.044 Z" id="Shape"></path>
            </g>
        </g>
    </g>
</svg>